<?xml version="1.0" encoding="UTF-8"?>
<svg width="281px" height="281px" viewBox="0 0 281 281" version="1.1" xmlns="http://www.w3.org/2000/svg" xmlns:xlink="http://www.w3.org/1999/xlink">
    <title>编组 8</title>
    <defs>
        <filter id="filter-1">
            <feColorMatrix in="SourceGraphic" type="matrix" values="0 0 0 0 1.000000 0 0 0 0 1.000000 0 0 0 0 1.000000 0 0 0 1.000000 0"></feColorMatrix>
        </filter>
    </defs>
    <g id="编组-8" stroke="none" stroke-width="1" fill="none" fill-rule="evenodd">
        <g>
            <g id="编组-9">
                <rect id="矩形" fill="#13c09d" x="0" y="0" width="280.8" height="280.8" rx="140.4"></rect>
                <g id="Group-538" transform="translate(65.700000, 71.100000)">
                    <g id="编组" transform="translate(0.619947, 0.504893)">
                        <g id="编组-2" transform="translate(0.640053, 0.215107)"></g>
                    </g>
                </g>
            </g>
            <g id="logo" transform="translate(52.000000, 59.000000)" filter="url(#filter-1)">
                <g>
                    <path d="M113.678231,1.73517439 C111.032129,2.88038802 108.639546,4.55720427 106.6433,6.66553407 C104.633853,8.77308414 103.06007,11.2703748 102.015256,14.009345 C100.970442,16.7483152 100.47587,19.6732056 100.56086,22.6106043 C100.503851,34.4806899 96.0020898,45.8807106 87.9752149,54.4818546 L83.5954198,58.8611123 C81.8449973,60.4166997 80.0108795,61.8716668 78.1015999,63.2192564 C74.7619307,65.0263847 71.9723921,67.7321854 70.0363728,71.0423718 C68.5829558,73.5181491 67.63747,76.2686999 67.2571097,79.1276027 C66.8767494,81.9865055 67.069427,84.8943364 67.8234834,87.6751639 C68.5775398,90.4559914 69.8772985,93.0520126 71.6441267,95.3061597 C73.4109549,97.5603067 75.60812,99.4257237 78.1026938,100.789549 C84.8384814,105.132159 90.409857,111.112592 94.315996,118.193257 C98.2350242,125.28502 100.370713,133.255161 100.53252,141.392649 C100.455259,144.328439 100.952873,147.250485 101.996287,149.988047 C103.0397,152.725608 104.607985,155.223789 106.609509,157.336612 C108.606748,159.444228 110.999945,161.120402 113.64642,162.265206 C116.292895,163.410009 119.138459,164 122.013455,164 C124.888452,164 127.73401,163.410009 130.380485,162.265206 C133.02696,161.120402 135.420163,159.444228 137.417401,157.336612 C139.422797,155.2266 140.993593,152.728906 142.037263,149.990671 C143.080933,147.252436 143.57637,144.329029 143.494391,141.392649 C143.449609,137.582368 142.421011,133.851299 140.512081,130.57481 C138.603151,127.298322 135.881216,124.591975 132.620118,122.728041 L122.641863,113.692916 C114.736851,105.116293 110.321548,93.8008865 110.288402,82.0338411 C110.288402,66.033226 119.466569,49.7715444 132.656092,41.2674333 C135.912957,39.4010415 138.631292,36.6950308 140.538679,33.4205847 C142.446066,30.1461387 143.475502,26.4182813 143.523821,22.6106043 C143.601364,19.6746834 143.103776,16.7524698 142.06015,14.014843 C141.016525,11.2772161 139.447813,8.77912364 137.445742,6.66664525 C133.412582,2.40625802 127.85336,-2.23765201e-14 122.04561,-2.16652758e-14 L122.044521,-2.16651424e-14 C119.16971,-2.13130796e-14 116.324334,0.58996077 113.678231,1.73517439 Z M46.7631338,121.061086 C44.156134,122.168699 41.7893513,123.789992 39.798572,125.831958 C36.2817703,129.439811 34.0947411,134.174276 33.6069716,139.235473 C33.119202,144.296669 34.3606005,149.374317 37.1214314,153.610571 C38.8746472,156.318894 41.1986727,158.59445 43.92415,160.271394 C46.6496273,161.948338 49.7078888,162.984423 52.8760488,163.304146 C56.0442089,163.62387 59.242448,163.219172 62.2376961,162.119551 C65.2329443,161.019929 67.9497349,159.253088 70.1900744,156.947785 C73.1956114,153.861503 75.2407456,149.939972 76.069286,145.674444 C76.8978263,141.408915 76.4729267,136.989059 74.847824,132.968529 C73.2229625,128.953209 70.4672873,125.518501 66.9286604,123.097984 C63.400591,120.683836 59.247656,119.393783 54.9981423,119.391942 L54.9905041,119.391942 L54.9905041,119.377497 C52.1660473,119.381337 49.3701335,119.953474 46.7631338,121.061086 Z M25.693055,60.3796346 C21.5205173,59.5289446 17.193873,59.9652662 13.2658357,61.6328595 C9.3352324,63.3027494 5.97936743,66.1240102 3.6233201,69.7392633 C1.26271463,73.3621245 0.00240242553,77.6138214 -4.80764584e-09,81.9627403 C0.00750006504,87.7921913 2.27436202,93.3825974 6.30700491,97.5167715 C9.81254357,101.114482 14.4377669,103.356061 19.3884412,103.856577 C24.3391155,104.357093 29.306318,103.085312 33.4370837,100.259635 C36.9749673,97.8395314 39.7287157,94.404002 41.349703,90.3879852 C42.9746697,86.3673501 43.3993873,81.9474125 42.5706519,77.6818782 C41.7419166,73.4163439 39.6965799,69.4948787 36.6908596,66.4087189 L36.6908596,66.4087189 C33.6945768,63.329407 29.8655926,61.2303245 25.693055,60.3796346 Z M140.329995,66.4153836 C136.811084,70.02177 134.622078,74.7559503 134.133082,79.8175019 C133.644087,84.8790536 134.885103,89.9574293 137.646308,94.1940017 C139.406829,96.8920629 141.733667,99.1576766 144.458557,100.827001 C147.183448,102.496326 150.238285,103.527639 153.40216,103.846366 C156.566035,104.165092 159.759868,103.763264 162.752703,102.669939 C165.745538,101.576614 168.46257,99.819119 170.707318,97.5245461 C173.713038,94.4383863 175.758376,90.5169162 176.587111,86.2513819 C177.415847,81.9858475 176.991129,77.5659149 175.366162,73.5452798 C173.744346,69.5279869 170.990912,66.0905317 167.453538,63.66696 C163.921174,61.2506836 159.76309,59.9605691 155.508846,59.9609227 L155.508846,59.9609227 C149.81012,59.978564 144.351089,62.2998942 140.329995,66.4153836 Z M57.099422,0.651710181 C52.1491104,0.152649755 47.1826958,1.42498202 43.0523576,4.25038938 C39.5155757,6.67124414 36.7620919,10.1060518 35.1397285,14.1209355 C33.5147619,18.1415706 33.0900443,22.5614983 33.9187796,26.8270326 C34.747515,31.0925669 36.7928517,35.0140346 39.798572,38.1001944 C42.7940975,41.17813 46.6216744,43.2764596 50.7926591,44.127308 C54.9636439,44.9781563 59.2888068,44.5429159 63.2159771,42.8771563 C67.1466179,41.1954091 70.502439,38.3681447 72.8624521,34.7500409 C75.2224652,31.1319371 76.4815692,26.884129 76.4818031,22.5395059 C76.4794121,16.7105409 74.214898,11.1191457 70.1824363,6.98547965 L70.1824363,6.98547965 C66.6752991,3.39010849 62.0497336,1.15077061 57.099422,0.651710181 Z" id="Vector" fill="#605BFF"></path>
                </g>
            </g>
        </g>
    </g>
</svg>