<?xml version="1.0" encoding="UTF-8"?>
<svg width="75px" height="17px" viewBox="0 0 75 17" version="1.1" xmlns="http://www.w3.org/2000/svg" xmlns:xlink="http://www.w3.org/1999/xlink">
    <title>Group 538</title>
    <g id="产品" stroke="none" stroke-width="1" fill="none" fill-rule="evenodd">
        <g id="首页_H5" transform="translate(-9.000000, -80.000000)">
            <g id="Group" transform="translate(0.000000, 64.000000)">
                <g id="编组" transform="translate(9.056459, 16.555803)">
                    <g fill="#13c09d" id="logo">
                        <path d="M11.2159953,0.171572774 C10.9549191,0.284810659 10.7188564,0.450613024 10.5218979,0.659083132 C10.323637,0.86747614 10.1683606,1.11440642 10.0652747,1.38523378 C9.9621888,1.65606115 9.91339211,1.94527218 9.9217776,2.23572001 C9.91615286,3.40942538 9.47198924,4.5366511 8.68002239,5.38712592 L8.2478925,5.82014372 C8.0751881,5.97395906 7.89422596,6.11782515 7.70584802,6.25107381 C7.37634154,6.42976134 7.10111337,6.69730893 6.91009718,7.02461774 C6.76669665,7.26942079 6.67341085,7.54139324 6.63588283,7.82407946 C6.59835481,8.10676567 6.61736522,8.39428986 6.69176375,8.66925605 C6.76616229,8.94422225 6.8944022,9.20091492 7.06872526,9.42380333 C7.24304832,9.64669174 7.45983031,9.8311428 7.70595595,9.96599688 C8.37053844,10.395391 8.92023491,10.9867318 9.3056318,11.6868628 C9.69230038,12.3880911 9.90301685,13.1761728 9.91898141,13.9808017 C9.91135852,14.2710904 9.96045535,14.5600202 10.0634031,14.8307083 C10.1663509,15.1013964 10.3210848,15.3484147 10.518564,15.5573291 C10.7156204,15.7657286 10.9517438,15.9314675 11.2128567,16.0446648 C11.4739695,16.1578621 11.7547254,16.2162 12.0383852,16.2162 C12.322045,16.2162 12.6028004,16.1578621 12.8639132,16.0446648 C13.1250261,15.9314675 13.36115,15.7657286 13.5582064,15.5573291 C13.7560676,15.3486926 13.9110492,15.1017225 14.0140223,14.8309678 C14.1169953,14.5602131 14.1658774,14.2711488 14.157789,13.9808017 C14.1533706,13.6040439 14.0518845,13.2351185 13.8635411,12.9111417 C13.6751977,12.5871649 13.4066396,12.3195633 13.0848853,12.1352588 L12.1003867,11.2418724 C11.3204433,10.3938221 10.8848101,9.27496302 10.8815397,8.11144618 C10.8815397,6.52931707 11.7870982,4.92137389 13.0884346,4.08049361 C13.4097712,3.89594615 13.6779742,3.62837779 13.8661654,3.30460296 C14.0543566,2.98082813 14.1559253,2.61222033 14.1606926,2.23572001 C14.1683434,1.9454183 14.1192491,1.65647195 14.0162805,1.38577742 C13.9133118,1.11508288 13.7585357,0.868073322 13.5610026,0.659193005 C13.1630732,0.237929033 12.614576,-2.9588795e-15 12.0415577,-2.88870501e-15 L12.0414503,-2.88869185e-15 C11.7578088,-2.85395578e-15 11.4770714,0.0583348893 11.2159953,0.171572774 Z M4.61385685,11.9704316 C4.35663877,12.0799515 4.12312156,12.2402638 3.92670249,12.442172 C3.57971935,12.7989138 3.36393741,13.2670543 3.31581191,13.7675017 C3.26768642,14.2679491 3.39016826,14.7700232 3.662564,15.1889009 C3.83554401,15.4566979 4.0648426,15.6817032 4.3337502,15.8475181 C4.6026578,16.0133331 4.90439936,16.1157805 5.21698399,16.1473945 C5.52956862,16.1790085 5.84512099,16.1389923 6.14064537,16.0302626 C6.43616975,15.9215328 6.70422028,15.7468288 6.92526206,15.5188822 C7.22180158,15.2137128 7.42358353,14.8259547 7.50533097,14.4041824 C7.58707842,13.9824101 7.54515595,13.5453779 7.38481615,13.1478308 C7.22450016,12.7507989 6.9526131,12.4111775 6.60347658,12.1718386 C6.2553817,11.9331294 5.84563483,11.8055699 5.42635908,11.8053878 L5.42560547,11.8053878 L5.42560547,11.8039596 C5.14693211,11.8043392 4.87107494,11.8609117 4.61385685,11.9704316 Z M2.53499003,5.97029409 C2.12330908,5.88617849 1.69642328,5.92932164 1.30886581,6.09421205 C0.921055167,6.25932954 0.589950741,6.53829374 0.357492728,6.89576733 C0.12458499,7.25399319 0.000237033889,7.67439787 0,8.10441579 C0.000739989468,8.68082763 0.22439858,9.2336029 0.622276898,9.64238701 C0.96814879,9.99812604 1.42449371,10.2197717 1.91294905,10.2692624 C2.4014044,10.318753 2.89149048,10.1930002 3.29905002,9.91359939 C3.64811321,9.67430128 3.91981016,9.33459864 4.07974392,8.93749784 C4.24007029,8.53994039 4.2819748,8.10290019 4.20020812,7.68112728 C4.11844144,7.25935437 3.9166395,6.87160275 3.62008189,6.56644554 L3.62008189,6.56644554 C3.32445543,6.26196542 2.94667098,6.05440968 2.53499003,5.97029409 Z M13.8455757,6.56710453 C13.4983845,6.92370138 13.2824075,7.39181366 13.234161,7.89229619 C13.1859146,8.39277871 13.3083587,8.89492479 13.5807913,9.31383397 C13.7544921,9.58061628 13.9840682,9.80463851 14.2529179,9.96970012 C14.5217676,10.1347617 14.8231712,10.2367372 15.1353331,10.2682526 C15.447495,10.2997681 15.7626126,10.2600356 16.0578989,10.1519285 C16.3531852,10.0438213 16.6212595,9.87004144 16.8427362,9.64315576 C17.1392939,9.33799854 17.3410959,8.95024644 17.4228626,8.52847353 C17.5046293,8.10670062 17.4627247,7.66966091 17.3023984,7.27210345 C17.1423828,6.87487647 16.8707169,6.53498342 16.521704,6.29534242 C16.1731854,6.05642278 15.7629305,5.9288572 15.3431881,5.92889217 L15.3431881,5.92889217 C14.7809266,5.93063653 14.2423146,6.16016795 13.8455757,6.56710453 Z M5.6336806,0.0644406259 C5.14526105,0.0150938961 4.65525269,0.140901179 4.24773532,0.420275392 C3.89878084,0.659647739 3.62710999,0.999279005 3.46704047,1.39626777 C3.3067141,1.79382522 3.26480959,2.23086445 3.34657627,2.65263736 C3.42834295,3.07441027 3.63014488,3.46216213 3.92670249,3.76731934 C4.22225424,4.07166336 4.59989984,4.27914466 5.01142758,4.36327592 C5.42295532,4.44740718 5.84969495,4.40437094 6.23716688,4.23966184 C6.62498122,4.07337191 6.95608132,3.79381408 7.18893061,3.43605862 C7.42177991,3.07830316 7.54600866,2.658283 7.54603173,2.22868985 C7.54579583,1.65232605 7.32236888,1.09945299 6.92450845,0.690719117 L6.92450845,0.690719117 C6.57847883,0.335211447 6.12210016,0.113787356 5.6336806,0.0644406259 Z" id="Vector"></path>
                    </g>
                    <g transform="translate(21.205800, -0.000000)" fill="#FFFFFF" id="形状结合">
                        <path d="M29.1570892,7.78546156 C29.4453746,8.28478653 29.2728647,8.92698957 28.7696063,9.22794559 L27.4969945,9.98239832 L26.1227122,10.7883744 L22.3674101,12.97045 L21.8913514,13.2455844 C22.9639556,14.1878936 24.5642308,14.3978682 25.8987373,13.6704245 L25.9769252,13.6265509 C26.7989871,13.1519332 27.382781,12.3888668 27.6291162,11.4996146 C27.7860842,10.9329714 28.3747688,10.5930942 28.9439802,10.7404775 C29.5131915,10.8878608 29.8473808,11.4666936 29.6904128,12.0333367 C29.2948148,13.4614172 28.3528411,14.692654 27.0325403,15.45493 C24.348224,17.0047207 20.9448176,16.1481606 19.3797945,13.5474446 L19.3283114,13.460109 C17.804457,10.8207158 18.7181138,7.43302564 21.3640227,5.84297309 L21.4528603,5.79064062 C24.1670023,4.22362999 27.6163031,5.11674174 29.1570892,7.78546156 Z M9.20241166,0.312020682 C9.60516073,0.711046805 9.61714591,1.346783 9.24013999,1.75991145 L9.19664975,1.80487519 L2.90930486,7.94002247 L9.19664975,14.0752484 C9.60246739,14.4712573 9.6193596,15.1068858 9.24555357,15.5228159 L9.20241166,15.5681029 C8.79966259,15.9671291 8.15321561,15.9837386 7.73020624,15.6161883 L7.68414843,15.5737684 L2.215,10.237 L2.25018059,14.9479318 C2.25451059,15.5309164 1.77737454,16.0069702 1.18446741,16.0112565 C0.611323852,16.0153433 0.139801854,15.577085 0.105092613,15.0212554 L0.103073936,14.9633497 L2.92392133e-05,1.0895506 C-0.00430075512,0.506565997 0.472835288,0.03051219 1.06574242,0.0262259099 C1.63888598,0.0221390473 2.11040798,0.460397393 2.14511722,1.01622702 L2.14713589,1.07413272 L2.181,5.675 L7.68414843,0.3063552 C8.10499635,-0.104320709 8.78474595,-0.101784186 9.20241166,0.312020682 Z M35.6224721,5.45510441 C38.3847954,5.45510441 40.6302541,7.63103041 40.6827061,10.3347913 L40.6836442,10.4315758 L40.6836442,14.9556407 C40.6836442,15.5386409 40.2029851,16.0112559 39.6100622,16.0112559 C39.0369034,16.0112559 38.5686489,15.5696234 38.5380688,15.0135594 L38.5364802,14.9556407 L38.5364802,10.4315758 C38.5364802,8.84914685 37.2318343,7.5663347 35.6224721,7.5663347 C34.0408574,7.5663347 32.7535423,8.80529328 32.7096223,10.3499983 L32.7084639,10.4315758 L32.7084639,14.9556407 C32.7084639,15.5386409 32.2278049,16.0112559 31.634882,16.0112559 C31.0617231,16.0112559 30.5934687,15.5696234 30.5628886,15.0135594 L30.5613,14.9556407 L30.5613,10.4315758 C30.5613,7.68314655 32.8272639,5.45510441 35.6224721,5.45510441 Z M51.751763,0.026226511 C52.3249218,0.026226511 52.7931763,0.467858972 52.8237564,1.02392301 L52.825345,1.08184166 L52.8251267,10.4809379 C52.7980448,13.5418546 50.2659658,16.0112559 47.1506975,16.0112559 C44.0166762,16.0112559 41.47605,13.513148 41.47605,10.4315758 C41.47605,7.35000361 44.0166762,4.85189575 47.1506975,4.85189575 C47.7436204,4.85189575 48.2242794,5.32451075 48.2242794,5.9075109 C48.2242794,6.49051105 47.7436204,6.96312605 47.1506975,6.96312605 C45.2025221,6.96312605 43.6232139,8.5160039 43.6232139,10.4315758 C43.6232139,12.3471477 45.2025221,13.9000256 47.1506975,13.9000256 C49.0569055,13.9000256 50.611935,12.4125357 50.6761676,10.5470838 L50.6780949,10.4579715 L50.678181,1.08184166 C50.678181,0.498841511 51.1588401,0.026226511 51.751763,0.026226511 Z M11.7991775,0.026226511 C12.3723364,0.026226511 12.8405908,0.467858972 12.8711709,1.02392301 L12.8727595,1.08184166 L12.8727595,13.9000256 L17.923707,13.9000256 C18.4968658,13.9000256 18.9651202,14.341658 18.9957004,14.8977221 L18.9972889,14.9556407 C18.9972889,15.5192075 18.5481398,15.9796256 17.9826114,16.0096939 L17.923707,16.0112559 L11.7991775,16.0112559 C11.2260187,16.0112559 10.7577642,15.5696234 10.7271841,15.0135594 L10.7255956,14.9556407 L10.7255956,1.08184166 C10.7255956,0.498841511 11.2062546,0.026226511 11.7991775,0.026226511 Z M22.5866633,7.57514611 L22.5084754,7.61901969 C21.1602973,8.39739068 20.5118695,9.91670361 20.7944182,11.3422482 L20.8128909,11.4303951 L23.518237,9.86257294 L25.479906,8.71848324 L26.6369237,8.03863413 L26.5937012,7.99953799 C25.521445,7.05767702 23.9211698,6.84770245 22.5866633,7.57514611 Z"></path>
                    </g>
                </g>
            </g>
        </g>
    </g>
</svg>